<svg xmlns="http://www.w3.org/2000/svg" viewBox="0 0 256 256" role="img" aria-labelledby="title desc">
  <title id="title">Quirkboards icon</title>
  <desc id="desc">A layered quirky design board with bright creative marks.</desc>
  <defs>
    <linearGradient id="bg" x1="30" y1="24" x2="224" y2="226" gradientUnits="userSpaceOnUse">
      <stop offset="0" stop-color="#21d7c4"/>
      <stop offset="0.44" stop-color="#f8d84a"/>
      <stop offset="1" stop-color="#ff6b6b"/>
    </linearGradient>
    <filter id="shadow" x="-20%" y="-20%" width="140%" height="140%">
      <feDropShadow dx="0" dy="14" stdDeviation="12" flood-color="#000000" flood-opacity="0.28"/>
    </filter>
  </defs>
  <rect width="256" height="256" rx="58" fill="#090b12"/>
  <g filter="url(#shadow)" transform="rotate(-7 128 128)">
    <rect x="62" y="50" width="126" height="144" rx="28" fill="#f5f7ff"/>
    <rect x="76" y="38" width="120" height="150" rx="29" fill="url(#bg)"/>
    <rect x="76" y="38" width="120" height="150" rx="29" fill="none" stroke="#090b12" stroke-width="13"/>
    <path d="M105 86h59M105 116h39M105 146h52" fill="none" stroke="#090b12" stroke-width="13" stroke-linecap="round"/>
    <path d="M164 56l8 18 19 7-19 7-8 18-8-18-19-7 19-7 8-18Z" fill="#f5f7ff" stroke="#090b12" stroke-width="8" stroke-linejoin="round"/>
    <circle cx="96" cy="166" r="13" fill="#090b12"/>
  </g>
  <path d="M40 205c30-23 50 20 78-1 22-16 39 5 61-10" fill="none" stroke="#21d7c4" stroke-width="10" stroke-linecap="round"/>
</svg>
